<?xml version="1.0" encoding="UTF-8"?>
<svg id="Layer_2" data-name="Layer 2" xmlns="http://www.w3.org/2000/svg" viewBox="0 0 492.44 181.48">
  <defs>
    <style>
      .cls-1 {
        letter-spacing: -.02em;
      }

      .cls-2 {
        fill: #fff;
        font-family: Montserrat-ExtraBold, Montserrat;
        font-size: 8px;
        font-weight: 700;
      }

      .cls-3 {
        fill: #3a4889;
      }

      .cls-4 {
        letter-spacing: -.02em;
      }

      .cls-5 {
        fill: #d4d2d3;
      }

      .cls-6 {
        letter-spacing: 0em;
      }

      .cls-7 {
        letter-spacing: -.02em;
      }

      .cls-8 {
        letter-spacing: 0em;
      }
    </style>
  </defs>
  <g id="Layer_1-2" data-name="Layer 1">
    <g>
      <path class="cls-5" d="M0,4.54v172.4c0,2.51,2.03,4.54,4.53,4.54h483.36c2.51,0,4.54-2.03,4.54-4.54V4.54c0-2.51-2.03-4.54-4.54-4.54h-148.09c-2.51,0-4.54,2.03-4.54,4.54h0c0,2.51-2.03,4.54-4.54,4.54h-169.04c-2.51,0-4.54-2.03-4.54-4.54h0C157.16,2.03,155.13,0,152.63,0H4.54C2.03,0,0,2.03,0,4.54Z"/>
      <g>
        <path class="cls-5" d="M368.56,62.06c-7.69,2.33-18.18,2.34-25.87-.01-.9-.91-1.22-1.55-1.31-2.9,8.75,2.11,19.74,2.1,28.5.02-.09,1.35-.42,1.99-1.32,2.9Z"/>
        <path class="cls-3" d="M369.88,59.17c-8.76,2.09-19.75,2.09-28.5-.02-.09-1.36-.01-2.02-.01-3.36,8.92,1.83,19.6,1.82,28.52.01,0,1.34.08,2,0,3.36Z"/>
        <path class="cls-5" d="M369.89,55.95c-8.92,1.82-19.61,1.83-28.52-.01,0-1.34,0-2.01,0-3.35,9.07,1.55,19.45,1.55,28.52.01,0,1.34,0,2.01,0,3.35Z"/>
        <path class="cls-3" d="M369.89,52.59c-9.07,1.53-19.45,1.54-28.52-.01,0-1.34,0-2.01,0-3.35,9.21,1.26,19.31,1.25,28.52.01,0,1.34,0,2.01,0,3.35Z"/>
        <path class="cls-5" d="M369.89,49.38c-9.21,1.25-19.32,1.25-28.52-.01,0-1.34,0-2.01,0-3.35,9.33.96,19.19.95,28.52.01,0,1.34,0,2.01,0,3.35Z"/>
        <path class="cls-3" d="M369.89,46.03c-9.33.94-19.19.95-28.52-.01,0-1.34,0-2.01,0-3.35,9.43.64,19.09.64,28.52.01,0,1.34,0,2.01,0,3.35Z"/>
        <path class="cls-5" d="M369.88,42.81c-9.42.64-19.1.64-28.52-.01,0-1.34,0-2.01,0-3.35,9.49.33,19.03.33,28.52.01,0,1.34,0,2.01,0,3.35Z"/>
        <path class="cls-3" d="M369.88,39.46c-9.49.31-19.04.32-28.52-.01,0-1.34,0-2.01,0-3.35,9.51,0,19.01,0,28.52.01,0,1.34,0,2.01,0,3.35Z"/>
        <path class="cls-5" d="M369.88,36.25c-9.51,0-19.01,0-28.52-.01,0-1.34,0-2.01,0-3.35,9.49-.31,19.04-.32,28.52.01,0,1.34,0,2.01,0,3.35Z"/>
        <path class="cls-3" d="M369.88,32.89c-9.49-.33-19.03-.32-28.52-.01,0-1.34,0-2.01,0-3.35,9.42-.64,19.1-.64,28.52.01,0,1.34,0,2.01,0,3.35Z"/>
        <path class="cls-5" d="M369.88,29.68c-9.43-.64-19.09-.64-28.52-.01,0-1.34,0-2.01,0-3.35,9.33-.94,19.19-.95,28.52.01,0,1.34,0,2.01,0,3.35Z"/>
        <path class="cls-3" d="M369.88,26.33c-9.33-.96-19.19-.95-28.52-.01,0-1.34,0-2.01,0-3.35,9.21-1.25,19.32-1.26,28.52.01,0,1.34,0,2.01,0,3.35Z"/>
        <path class="cls-5" d="M369.87,23.11c-9.21-1.25-19.31-1.25-28.52-.01,0-1.34,0-2.01,0-3.35,9.07-1.53,19.45-1.54,28.52.01,0,1.34,0,2.01,0,3.35Z"/>
        <path class="cls-3" d="M369.87,19.76c-9.07-1.55-19.45-1.55-28.52-.01,0-1.34,0-2.01,0-3.35,8.92-1.82,19.61-1.83,28.52.01,0,1.34,0,2.01,0,3.35Z"/>
        <path class="cls-5" d="M369.87,16.55c-8.92-1.83-19.6-1.82-28.52-.01,0-1.34-.08-2,0-3.36,8.76-2.09,19.75-2.09,28.5.01.09,1.36.01,2.02.01,3.36Z"/>
        <path class="cls-3" d="M369.86,13.19c-8.75-2.1-19.74-2.1-28.5-.01.09-1.35.42-1.99,1.32-2.9,7.69-2.33,18.18-2.34,25.87,0,.9.91,1.22,1.55,1.31,2.9Z"/>
      </g>
      <path class="cls-3" d="M392.49,9.06l-11.89-.04c-2.51,0-4.55,2.02-4.55,4.54v45.42c0,2.51,2.03,4.54,4.53,4.54h11.89c2.51,0,4.54-2.03,4.54-4.53V13.59c0-2.5-2.02-4.53-4.52-4.54Z"/>
      <rect class="cls-3" x="94.4" y="9.08" width="20.96" height="54.43" rx="4.54" ry="4.54"/>
      <path class="cls-3" d="M425.15,108.88h-53.79c-2.51,0-4.54,2.03-4.54,4.54v54.4c-.01,2.51,2.02,4.54,4.52,4.54l53.81.03c2.51,0,4.54-2.03,4.54-4.54v-54.43c0-2.51-2.04-4.54-4.55-4.54Z"/>
      <path class="cls-3" d="M351.77,108.93l-85.27-.03c-2.51,0-4.54,2.03-4.54,4.54v54.44c0,2.51,2.03,4.54,4.54,4.54h85.3c2.51-.02,4.54-2.05,4.54-4.55l-.03-54.39c0-2.5-2.03-4.53-4.54-4.53Z"/>
      <path class="cls-3" d="M247.13,108.96l-95.88-.15c-2.51,0-4.55,2.03-4.54,4.54l.08,54.52c0,2.5,2.03,4.53,4.53,4.53l95.8.08c2.51,0,4.54-2.03,4.54-4.54v-54.45c0-2.5-2.03-4.53-4.53-4.54Z"/>
      <rect class="cls-3" x="73.43" y="108.93" width="62.86" height="63.46" rx="4.54" ry="4.54"/>
      <path class="cls-3" d="M477.51,9.07h-32.81c-2.51,0-4.54,2.03-4.54,4.53v63.51c0,2.51,2.03,4.54,4.54,4.54h32.83c2.51,0,4.54-2.03,4.54-4.54l-.02-63.51c0-2.5-2.03-4.53-4.54-4.54Z"/>
      <rect class="cls-3" x="440.16" y="90.74" width="41.92" height="81.66" rx="4.54" ry="4.54"/>
      <rect class="cls-3" x="10.54" y="9.11" width="52.39" height="18.15" rx="4.54" ry="4.54"/>
      <path class="cls-3" d="M58.21,36.17H14.91c-2.51,0-4.54,2.04-4.54,4.55l.21,127.15c0,2.5,2.03,4.53,4.54,4.53h43.32c2.51,0,4.54-2.04,4.54-4.54l-.22-127.15c0-2.5-2.03-4.53-4.54-4.53Z"/>
      <text class="cls-2" transform="translate(14.68 99.82)"><tspan x="0" y="0">ЛЕ</tspan><tspan class="cls-7" x="11.82" y="0">К</tspan><tspan x="17.66" y="0">ЦИЙН</tspan><tspan x="3.3" y="9.6">ТЭ</tspan><tspan class="cls-7" x="14.29" y="9.6">НХ</tspan><tspan class="cls-6" x="26.54" y="9.6">ИМ</tspan></text>
      <path class="cls-3" d="M330.76,18.17l-168.83.3c-2.5,0-4.52,2.03-4.53,4.52l-.2,72.28c0,2.51,2.03,4.55,4.54,4.55h169.03c2.51,0,4.54-2.03,4.54-4.54V22.71c0-2.51-2.04-4.54-4.54-4.54Z"/>
      <g>
        <path class="cls-5" d="M149.75,62.06c-7.69,2.33-18.18,2.34-25.87-.01-.9-.91-1.22-1.55-1.31-2.9,8.75,2.11,19.74,2.1,28.5.02-.09,1.35-.42,1.99-1.32,2.9Z"/>
        <path class="cls-3" d="M151.07,59.17c-8.76,2.09-19.75,2.09-28.5-.02-.09-1.36-.01-2.02-.01-3.36,8.92,1.83,19.6,1.82,28.52.01,0,1.34.08,2,0,3.36Z"/>
        <path class="cls-5" d="M151.08,55.95c-8.92,1.82-19.61,1.83-28.52-.01,0-1.34,0-2.01,0-3.35,9.07,1.55,19.45,1.55,28.52.01,0,1.34,0,2.01,0,3.35Z"/>
        <path class="cls-3" d="M151.08,52.59c-9.07,1.53-19.45,1.54-28.52-.01,0-1.34,0-2.01,0-3.35,9.21,1.26,19.31,1.25,28.52.01,0,1.34,0,2.01,0,3.35Z"/>
        <path class="cls-5" d="M151.08,49.38c-9.21,1.25-19.32,1.25-28.52-.01,0-1.34,0-2.01,0-3.35,9.33.96,19.19.95,28.52.01,0,1.34,0,2.01,0,3.35Z"/>
        <path class="cls-3" d="M151.08,46.03c-9.33.94-19.19.95-28.52-.01,0-1.34,0-2.01,0-3.35,9.43.64,19.09.64,28.52.01,0,1.34,0,2.01,0,3.35Z"/>
        <path class="cls-5" d="M151.07,42.81c-9.42.64-19.1.64-28.52-.01,0-1.34,0-2.01,0-3.35,9.49.33,19.03.33,28.52.01,0,1.34,0,2.01,0,3.35Z"/>
        <path class="cls-3" d="M151.07,39.46c-9.49.31-19.04.32-28.52-.01,0-1.34,0-2.01,0-3.35,9.51,0,19.01,0,28.52.01,0,1.34,0,2.01,0,3.35Z"/>
        <path class="cls-5" d="M151.07,36.25c-9.51,0-19.01,0-28.52-.01,0-1.34,0-2.01,0-3.35,9.49-.31,19.04-.32,28.52.01,0,1.34,0,2.01,0,3.35Z"/>
        <path class="cls-3" d="M151.07,32.89c-9.49-.33-19.03-.32-28.52-.01,0-1.34,0-2.01,0-3.35,9.42-.64,19.1-.64,28.52.01,0,1.34,0,2.01,0,3.35Z"/>
        <path class="cls-5" d="M151.07,29.68c-9.43-.64-19.09-.64-28.52-.01,0-1.34,0-2.01,0-3.35,9.33-.94,19.19-.95,28.52.01,0,1.34,0,2.01,0,3.35Z"/>
        <path class="cls-3" d="M151.07,26.33c-9.33-.96-19.19-.95-28.52-.01,0-1.34,0-2.01,0-3.35,9.21-1.25,19.32-1.26,28.52.01,0,1.34,0,2.01,0,3.35Z"/>
        <path class="cls-5" d="M151.06,23.11c-9.21-1.25-19.31-1.25-28.52-.01,0-1.34,0-2.01,0-3.35,9.07-1.53,19.45-1.54,28.52.01,0,1.34,0,2.01,0,3.35Z"/>
        <path class="cls-3" d="M151.06,19.76c-9.07-1.55-19.45-1.55-28.52-.01,0-1.34,0-2.01,0-3.35,8.92-1.82,19.61-1.83,28.52.01,0,1.34,0,2.01,0,3.35Z"/>
        <path class="cls-5" d="M151.06,16.55c-8.92-1.83-19.6-1.82-28.52-.01,0-1.34-.08-2,0-3.36,8.76-2.09,19.75-2.09,28.5.01.09,1.36.01,2.02.01,3.36Z"/>
        <path class="cls-3" d="M151.05,13.19c-8.75-2.1-19.74-2.1-28.5-.01.09-1.35.42-1.99,1.32-2.9,7.69-2.33,18.18-2.34,25.87,0,.9.91,1.22,1.55,1.31,2.9Z"/>
      </g>
      <text class="cls-2" transform="translate(204.25 63.39)"><tspan x="0" y="0">ЛЕ</tspan><tspan class="cls-4" x="11.82" y="0">К</tspan><tspan class="cls-8" x="17.66" y="0">ЦИЙН ТЭ</tspan><tspan class="cls-1" x="57.42" y="0">НХ</tspan><tspan x="69.66" y="0">ИМ</tspan></text>
    </g>
  </g>
</svg>