<?xml version="1.0" encoding="UTF-8"?>
<svg id="Layer_2" data-name="Layer 2" xmlns="http://www.w3.org/2000/svg" viewBox="0 0 492.44 181.48">
  <defs>
    <style>
      .cls-1 {
        font-family: Montserrat-ExtraBold, Montserrat;
        font-size: 8px;
        font-weight: 700;
      }

      .cls-1, .cls-2 {
        fill: #fff;
      }

      .cls-3 {
        fill: #3a4889;
      }

      .cls-4 {
        fill: #d4d2d3;
      }

      .cls-5 {
        letter-spacing: 0em;
      }

      .cls-6 {
        letter-spacing: 0em;
      }

      .cls-7 {
        letter-spacing: -.01em;
      }
    </style>
  </defs>
  <g id="Layer_1-2" data-name="Layer 1">
    <g>
      <path class="cls-4" d="M0,4.54v172.4c0,2.51,2.03,4.54,4.53,4.54h483.36c2.51,0,4.54-2.03,4.54-4.54V4.54c0-2.51-2.03-4.54-4.54-4.54h-148.09c-2.51,0-4.54,2.03-4.54,4.54h0c0,2.51-2.03,4.54-4.54,4.54h-169.04c-2.51,0-4.54-2.03-4.54-4.54h0C157.16,2.03,155.13,0,152.63,0H4.54C2.03,0,0,2.03,0,4.54Z"/>
      <rect class="cls-3" x="157.16" y="18.09" width="178.11" height="54.44" rx="4.54" ry="4.54"/>
      <g>
        <path class="cls-4" d="M370.29,62.13c-7.69,2.33-18.18,2.34-25.87-.01-.9-.91-1.22-1.55-1.31-2.9,8.75,2.11,19.74,2.1,28.5.02-.09,1.35-.42,1.99-1.32,2.9Z"/>
        <path class="cls-3" d="M371.61,59.23c-8.76,2.09-19.75,2.09-28.5-.02-.09-1.36-.01-2.02-.01-3.36,8.92,1.83,19.6,1.82,28.52.01,0,1.34.08,2,0,3.36Z"/>
        <path class="cls-4" d="M371.62,56.01c-8.92,1.82-19.61,1.83-28.52-.01,0-1.34,0-2.01,0-3.35,9.07,1.55,19.45,1.55,28.52.01,0,1.34,0,2.01,0,3.35Z"/>
        <path class="cls-3" d="M371.62,52.66c-9.07,1.53-19.45,1.54-28.52-.01,0-1.34,0-2.01,0-3.35,9.21,1.26,19.31,1.25,28.52.01,0,1.34,0,2.01,0,3.35Z"/>
        <path class="cls-4" d="M371.62,49.44c-9.21,1.25-19.32,1.25-28.52-.01,0-1.34,0-2.01,0-3.35,9.33.96,19.19.95,28.52.01,0,1.34,0,2.01,0,3.35Z"/>
        <path class="cls-3" d="M371.62,46.09c-9.33.94-19.19.95-28.52-.01,0-1.34,0-2.01,0-3.35,9.43.64,19.09.64,28.52.01,0,1.34,0,2.01,0,3.35Z"/>
        <path class="cls-4" d="M371.62,42.88c-9.42.64-19.1.64-28.52-.01,0-1.34,0-2.01,0-3.35,9.49.33,19.03.33,28.52.01,0,1.34,0,2.01,0,3.35Z"/>
        <path class="cls-3" d="M371.61,39.52c-9.49.31-19.04.32-28.52-.01,0-1.34,0-2.01,0-3.35,9.51,0,19.01,0,28.52.01,0,1.34,0,2.01,0,3.35Z"/>
        <path class="cls-4" d="M371.61,36.31c-9.51,0-19.01,0-28.52-.01,0-1.34,0-2.01,0-3.35,9.49-.31,19.04-.32,28.52.01,0,1.34,0,2.01,0,3.35Z"/>
        <path class="cls-3" d="M371.61,32.96c-9.49-.33-19.03-.32-28.52-.01,0-1.34,0-2.01,0-3.35,9.42-.64,19.1-.64,28.52.01,0,1.34,0,2.01,0,3.35Z"/>
        <path class="cls-4" d="M371.61,29.74c-9.43-.64-19.09-.64-28.52-.01,0-1.34,0-2.01,0-3.35,9.33-.94,19.19-.95,28.52.01,0,1.34,0,2.01,0,3.35Z"/>
        <path class="cls-3" d="M371.61,26.39c-9.33-.96-19.19-.95-28.52-.01,0-1.34,0-2.01,0-3.35,9.21-1.25,19.32-1.26,28.52.01,0,1.34,0,2.01,0,3.35Z"/>
        <path class="cls-4" d="M371.61,23.18c-9.21-1.25-19.31-1.25-28.52-.01,0-1.34,0-2.01,0-3.35,9.07-1.53,19.45-1.54,28.52.01,0,1.34,0,2.01,0,3.35Z"/>
        <path class="cls-3" d="M371.6,19.83c-9.07-1.55-19.45-1.55-28.52-.01,0-1.34,0-2.01,0-3.35,8.92-1.82,19.61-1.83,28.52.01,0,1.34,0,2.01,0,3.35Z"/>
        <path class="cls-4" d="M371.6,16.61c-8.92-1.83-19.6-1.82-28.52-.01,0-1.34-.08-2,0-3.36,8.76-2.09,19.75-2.09,28.5.01.09,1.36.01,2.02.01,3.36Z"/>
        <path class="cls-3" d="M371.59,13.25c-8.75-2.1-19.74-2.1-28.5-.01.09-1.35.42-1.99,1.32-2.9,7.69-2.33,18.18-2.34,25.87,0,.9.91,1.22,1.55,1.31,2.9Z"/>
      </g>
      <rect class="cls-3" x="380.22" y="9.02" width="20.96" height="54.43" rx="4.54" ry="4.54"/>
      <rect class="cls-3" x="94.28" y="9.02" width="20.96" height="54.43" rx="4.54" ry="4.54"/>
      <rect class="cls-3" x="10.47" y="9.02" width="52.38" height="72.58" rx="4.54" ry="4.54"/>
      <rect class="cls-3" x="10.48" y="90.68" width="52.38" height="81.66" rx="4.54" ry="4.54"/>
      <path class="cls-3" d="M425.05,108.82h-53.79c-2.51,0-4.54,2.03-4.54,4.54v54.44c0,2.51,2.03,4.54,4.54,4.54h53.8c2.51,0,4.54-2.04,4.54-4.55v-54.43c0-2.51-2.04-4.54-4.54-4.54Z"/>
      <rect class="cls-3" x="293.47" y="108.72" width="62.68" height="63.68" rx="4.54" ry="4.54" transform="translate(-.29 .66) rotate(-.12)"/>
      <rect class="cls-3" x="220.04" y="108.82" width="62.86" height="63.51" rx="4.54" ry="4.54"/>
      <rect class="cls-3" x="146.7" y="108.82" width="62.86" height="63.51" rx="4.54" ry="4.54"/>
      <path class="cls-3" d="M131.49,108.57l-53.61.23c-2.5.01-4.52,2.04-4.52,4.54v54.46c0,2.5,2.03,4.54,4.53,4.54l53.95.04c2.52,0,4.56-2.05,4.54-4.56l-.33-54.74c-.02-2.5-2.05-4.52-4.56-4.51Z"/>
      <path class="cls-3" d="M477.39,9.02h-32.81c-2.51,0-4.54,2.03-4.54,4.53v63.51c0,2.51,2.03,4.54,4.54,4.54h32.83c2.51,0,4.54-2.03,4.54-4.54l-.02-63.51c0-2.5-2.03-4.53-4.54-4.54Z"/>
      <rect class="cls-3" x="440.07" y="90.67" width="41.92" height="81.66" rx="4.54" ry="4.54"/>
      <g>
        <path class="cls-4" d="M151.48,62.13c-7.69,2.33-18.18,2.34-25.87-.01-.9-.91-1.22-1.55-1.31-2.9,8.75,2.11,19.74,2.1,28.5.02-.09,1.35-.42,1.99-1.32,2.9Z"/>
        <path class="cls-3" d="M152.8,59.23c-8.76,2.09-19.75,2.09-28.5-.02-.09-1.36-.01-2.02-.01-3.36,8.92,1.83,19.6,1.82,28.52.01,0,1.34.08,2,0,3.36Z"/>
        <path class="cls-4" d="M152.81,56.01c-8.92,1.82-19.61,1.83-28.52-.01,0-1.34,0-2.01,0-3.35,9.07,1.55,19.45,1.55,28.52.01,0,1.34,0,2.01,0,3.35Z"/>
        <path class="cls-3" d="M152.81,52.66c-9.07,1.53-19.45,1.54-28.52-.01,0-1.34,0-2.01,0-3.35,9.21,1.26,19.31,1.25,28.52.01,0,1.34,0,2.01,0,3.35Z"/>
        <path class="cls-4" d="M152.81,49.44c-9.21,1.25-19.32,1.25-28.52-.01,0-1.34,0-2.01,0-3.35,9.33.96,19.19.95,28.52.01,0,1.34,0,2.01,0,3.35Z"/>
        <path class="cls-3" d="M152.81,46.09c-9.33.94-19.19.95-28.52-.01,0-1.34,0-2.01,0-3.35,9.43.64,19.09.64,28.52.01,0,1.34,0,2.01,0,3.35Z"/>
        <path class="cls-4" d="M152.81,42.88c-9.42.64-19.1.64-28.52-.01,0-1.34,0-2.01,0-3.35,9.49.33,19.03.33,28.52.01,0,1.34,0,2.01,0,3.35Z"/>
        <path class="cls-3" d="M152.8,39.52c-9.49.31-19.04.32-28.52-.01,0-1.34,0-2.01,0-3.35,9.51,0,19.01,0,28.52.01,0,1.34,0,2.01,0,3.35Z"/>
        <path class="cls-4" d="M152.8,36.31c-9.51,0-19.01,0-28.52-.01,0-1.34,0-2.01,0-3.35,9.49-.31,19.04-.32,28.52.01,0,1.34,0,2.01,0,3.35Z"/>
        <path class="cls-3" d="M152.8,32.96c-9.49-.33-19.03-.32-28.52-.01,0-1.34,0-2.01,0-3.35,9.42-.64,19.1-.64,28.52.01,0,1.34,0,2.01,0,3.35Z"/>
        <path class="cls-4" d="M152.8,29.74c-9.43-.64-19.09-.64-28.52-.01,0-1.34,0-2.01,0-3.35,9.33-.94,19.19-.95,28.52.01,0,1.34,0,2.01,0,3.35Z"/>
        <path class="cls-3" d="M152.8,26.39c-9.33-.96-19.19-.95-28.52-.01,0-1.34,0-2.01,0-3.35,9.21-1.25,19.32-1.26,28.52.01,0,1.34,0,2.01,0,3.35Z"/>
        <path class="cls-4" d="M152.8,23.18c-9.21-1.25-19.31-1.25-28.52-.01,0-1.34,0-2.01,0-3.35,9.07-1.53,19.45-1.54,28.52.01,0,1.34,0,2.01,0,3.35Z"/>
        <path class="cls-3" d="M152.79,19.83c-9.07-1.55-19.45-1.55-28.52-.01,0-1.34,0-2.01,0-3.35,8.92-1.82,19.61-1.83,28.52.01,0,1.34,0,2.01,0,3.35Z"/>
        <path class="cls-4" d="M152.79,16.61c-8.92-1.83-19.6-1.82-28.52-.01,0-1.34-.08-2,0-3.36,8.76-2.09,19.75-2.09,28.5.01.09,1.36.01,2.02.01,3.36Z"/>
        <path class="cls-3" d="M152.78,13.25c-8.75-2.1-19.74-2.1-28.5-.01.09-1.35.42-1.99,1.32-2.9,7.69-2.33,18.18-2.34,25.87,0,.9.91,1.22,1.55,1.31,2.9Z"/>
      </g>
      <text class="cls-1" transform="translate(200.96 49.9)"><tspan class="cls-6" x="0" y="0">Б</tspan><tspan x="5.87" y="0">АГШ НА</tspan><tspan class="cls-7" x="41.52" y="0">Р</tspan><tspan class="cls-5" x="47.28" y="0">ЫН ӨРӨӨ</tspan></text>
      <g>
        <path class="cls-2" d="M92.32,134.14v-5.6h4.68v1.22h-3.12v.9h1.45c.68,0,1.2.14,1.56.43s.54.7.54,1.25-.2,1-.61,1.32-.97.48-1.7.48h-2.8ZM93.88,133h1.14c.26,0,.46-.05.6-.16.14-.11.21-.26.21-.46,0-.39-.27-.59-.82-.59h-1.14v1.21Z"/>
        <path class="cls-2" d="M97.63,134.14l2.47-5.6h1.56l2.48,5.6h-1.65l-1.94-4.82h.62l-1.94,4.82h-1.62ZM98.98,133.05l.41-1.17h2.74l.41,1.17h-3.55Z"/>
        <path class="cls-2" d="M104.78,134.14v-5.6h4.1v1.26h-2.9l.35-.35v4.7h-1.56Z"/>
        <path class="cls-2" d="M109.6,134.14v-5.6h1.56v4.7l-.34-.35h2.15l-.34.35v-4.7h1.56v4.7l-.36-.35h2.17l-.36.35v-4.7h1.56v5.6h-7.59Z"/>
        <path class="cls-2" d="M88.46,143.74v-5.6h1.58v5.6h-1.58ZM89.93,141.55v-1.31h2.38v1.31h-2.38ZM92.2,143.74v-5.6h1.58v5.6h-1.58Z"/>
        <path class="cls-2" d="M94.42,143.74l2.47-5.6h1.56l2.48,5.6h-1.65l-1.94-4.82h.62l-1.94,4.82h-1.62ZM95.78,142.65l.41-1.17h2.74l.41,1.17h-3.55Z"/>
        <path class="cls-2" d="M101.58,143.74v-5.6h2.56c.51,0,.95.08,1.32.25.37.17.66.4.86.72.2.31.3.68.3,1.11s-.1.79-.3,1.1c-.2.31-.49.55-.86.72-.37.17-.81.25-1.32.25h-1.68l.7-.69v2.15h-1.58ZM103.16,141.75l-.7-.73h1.58c.33,0,.58-.07.74-.22.16-.14.24-.34.24-.6s-.08-.46-.24-.61c-.16-.14-.41-.22-.74-.22h-1.58l.7-.73v3.1Z"/>
        <path class="cls-2" d="M107.34,143.74v-5.6h1.56v1.78h1.3c.68,0,1.21.15,1.59.46.38.3.56.76.56,1.37,0,.66-.21,1.15-.63,1.49-.42.34-1,.5-1.73.5h-2.65ZM108.9,142.6h.98c.27,0,.48-.07.64-.22s.24-.35.24-.61-.08-.45-.24-.56-.37-.16-.64-.16h-.98v1.55ZM112.96,143.74v-5.6h1.56v5.6h-1.56Z"/>
        <path class="cls-2" d="M115.73,143.74v-5.6h1.58v5.6h-1.58ZM117.2,141.55v-1.31h2.38v1.31h-2.38ZM119.47,143.74v-5.6h1.58v5.6h-1.58Z"/>
        <path class="cls-2" d="M95.13,153.45c-.45,0-.86-.07-1.24-.22-.38-.14-.71-.35-.99-.61-.28-.26-.49-.57-.65-.93-.16-.35-.23-.74-.23-1.16s.08-.81.23-1.16c.15-.35.37-.66.65-.92.28-.26.61-.47.99-.61.38-.14.8-.22,1.24-.22s.86.07,1.24.22c.38.14.71.35.98.61.28.26.49.57.65.92.15.35.23.74.23,1.16s-.08.81-.23,1.16c-.16.35-.37.66-.65.92s-.61.46-.98.61c-.38.14-.79.22-1.24.22ZM95.13,152.14c.18,0,.34-.02.5-.08.15-.05.29-.13.42-.23.12-.1.23-.22.33-.37.09-.14.16-.31.21-.49h-2.92c.05.18.12.34.21.49.09.14.2.27.33.37.13.1.27.18.42.23.15.05.32.08.5.08ZM93.7,150h2.86c-.04-.16-.1-.31-.19-.44s-.2-.24-.32-.34c-.13-.09-.27-.17-.42-.22-.15-.05-.32-.08-.49-.08s-.34.03-.5.08c-.16.05-.3.12-.42.22-.12.09-.23.21-.32.34s-.15.28-.19.44Z"/>
        <path class="cls-2" d="M99.08,153.34v-5.6h2.56c.51,0,.95.08,1.32.25.37.17.66.4.86.72.2.31.3.68.3,1.11s-.1.79-.3,1.1c-.2.31-.49.55-.86.72-.37.17-.81.25-1.32.25h-1.68l.7-.69v2.15h-1.58ZM100.66,151.35l-.7-.73h1.58c.33,0,.58-.07.74-.22.16-.14.24-.34.24-.6s-.08-.46-.24-.61c-.16-.14-.41-.22-.74-.22h-1.58l.7-.73v3.1Z"/>
        <path class="cls-2" d="M107.68,153.45c-.45,0-.86-.07-1.24-.22-.38-.14-.71-.35-.99-.61-.28-.26-.49-.57-.65-.93-.16-.35-.23-.74-.23-1.16s.08-.81.23-1.16c.15-.35.37-.66.65-.92.28-.26.61-.47.99-.61.38-.14.8-.22,1.24-.22s.86.07,1.24.22c.38.14.71.35.98.61.28.26.49.57.65.92.15.35.23.74.23,1.16s-.08.81-.23,1.16c-.16.35-.37.66-.65.92s-.61.46-.98.61c-.38.14-.79.22-1.24.22ZM107.68,152.14c.18,0,.34-.02.5-.08.15-.05.29-.13.42-.23.12-.1.23-.22.33-.37.09-.14.16-.31.21-.49h-2.92c.05.18.12.34.21.49.09.14.2.27.33.37.13.1.27.18.42.23.15.05.32.08.5.08ZM106.25,150h2.86c-.04-.16-.1-.31-.19-.44s-.2-.24-.32-.34c-.13-.09-.27-.17-.42-.22-.15-.05-.32-.08-.49-.08s-.34.03-.5.08c-.16.05-.3.12-.42.22-.12.09-.23.21-.32.34s-.15.28-.19.44Z"/>
        <path class="cls-2" d="M114.39,153.45c-.45,0-.86-.07-1.24-.22-.38-.14-.71-.35-.99-.61-.28-.26-.49-.57-.65-.93-.16-.35-.23-.74-.23-1.16s.08-.81.23-1.16c.15-.35.37-.66.65-.92.28-.26.61-.47.99-.61.38-.14.8-.22,1.24-.22s.86.07,1.24.22c.38.14.71.35.98.61.28.26.49.57.65.92.15.35.23.74.23,1.16s-.08.81-.23,1.16c-.16.35-.37.66-.65.92s-.61.46-.98.61c-.38.14-.79.22-1.24.22ZM114.39,152.14c.18,0,.34-.02.5-.08.15-.05.29-.13.42-.23.12-.1.23-.22.33-.37.09-.14.16-.31.21-.49h-2.92c.05.18.12.34.21.49.09.14.2.27.33.37.13.1.27.18.42.23.15.05.32.08.5.08ZM112.96,150h2.86c-.04-.16-.1-.31-.19-.44s-.2-.24-.32-.34c-.13-.09-.27-.17-.42-.22-.15-.05-.32-.08-.49-.08s-.34.03-.5.08c-.16.05-.3.12-.42.22-.12.09-.23.21-.32.34s-.15.28-.19.44Z"/>
      </g>
      <text class="cls-1" transform="translate(28.94 48.38)"><tspan x="0" y="0">209</tspan></text>
      <text class="cls-1" transform="translate(28.86 138.14)"><tspan x="0" y="0">208</tspan></text>
      <g>
        <path class="cls-2" d="M104.52,41.29c-.1.61-1.09.66-1.23.02v-8.93c-.02-.06-.07-.11-.13-.09l-.08.04-.03,3.92c-.08.68-.98.63-1.04,0-.09-.86.07-1.86,0-2.74.03-1.07-.13-2.28,1.29-2.37.78-.05,1.99-.06,2.77,0,.63.05,1.17.46,1.23,1.12.12,1.27-.09,2.7,0,3.99-.06.63-.97.69-1.05-.06s.02-1.7.03-2.46c0-.38.04-.92,0-1.28-.03-.23-.22-.19-.22-.11v8.95s-.06.15-.08.17c-.22.42-.87.42-1.09,0-.01-.03-.08-.16-.08-.17v-5.14h-.28v5.14Z"/>
        <path class="cls-2" d="M103.9,30.49c-1-.98.49-2.53,1.51-1.56s-.49,2.57-1.51,1.56Z"/>
      </g>
      <g>
        <path class="cls-2" d="M393.95,35.45v.22c-.17.52-.82.55-1.02.03l-.86-2.44.72,3.78c.02.08-.14.29-.21.29h-.48v3.89s-.07.16-.09.19c-.24.42-.86.4-1.08-.02-.01-.02-.08-.19-.08-.2v-3.86h-.23s-.05.07-.05.07l-.03,3.91c-.15.47-.82.55-1.09.15-.02-.03-.1-.19-.1-.21v-3.88l-.04-.04h-.47s-.18-.16-.17-.21l.71-3.86s-.04.05-.05.08c-.3.75-.51,1.57-.82,2.31-.07.16-.12.29-.29.37-.26.12-.55.04-.68-.22-.12-.23-.06-.34.01-.57.34-1.09.8-2.18,1.16-3.27.15-.31.36-.6.69-.72.39-.14,1.72-.12,2.18-.09.61.04.92.34,1.16.89l1.21,3.41Z"/>
        <path class="cls-2" d="M390.51,28.7c1.55-.22,1.7,2,.32,2.12s-1.56-1.94-.32-2.12Z"/>
      </g>
    </g>
  </g>
</svg>