<?xml version="1.0" encoding="UTF-8"?>
<svg id="Layer_2" data-name="Layer 2" xmlns="http://www.w3.org/2000/svg" viewBox="0 0 492.44 181.48">
  <defs>
    <style>
      .cls-1 {
        letter-spacing: -.01em;
      }

      .cls-2 {
        font-family: Montserrat-ExtraBold, Montserrat;
        font-size: 8px;
        font-weight: 700;
      }

      .cls-2, .cls-3 {
        fill: #fff;
      }

      .cls-4 {
        fill: #3a4889;
      }

      .cls-5 {
        fill: #d4d2d3;
      }
    </style>
  </defs>
  <g id="Layer_1-2" data-name="Layer 1">
    <g>
      <path class="cls-5" d="M0,4.54v172.4c0,2.51,2.03,4.54,4.53,4.54h483.36c2.51,0,4.54-2.03,4.54-4.54V4.54c0-2.51-2.03-4.54-4.54-4.54h-148.09c-2.51,0-4.54,2.03-4.54,4.54h0c0,2.51-2.03,4.54-4.54,4.54h-169.04c-2.51,0-4.54-2.03-4.54-4.54h0C157.16,2.03,155.13,0,152.63,0H4.54C2.03,0,0,2.03,0,4.54Z"/>
      <rect class="cls-4" x="157.16" y="18.09" width="178.11" height="54.44" rx="4.54" ry="4.54"/>
      <g>
        <path class="cls-5" d="M370.29,62.13c-7.69,2.33-18.18,2.34-25.87-.01-.9-.91-1.22-1.55-1.31-2.9,8.75,2.11,19.74,2.1,28.5.02-.09,1.35-.42,1.99-1.32,2.9Z"/>
        <path class="cls-4" d="M371.61,59.23c-8.76,2.09-19.75,2.09-28.5-.02-.09-1.36-.01-2.02-.01-3.36,8.92,1.83,19.6,1.82,28.52.01,0,1.34.08,2,0,3.36Z"/>
        <path class="cls-5" d="M371.62,56.01c-8.92,1.82-19.61,1.83-28.52-.01,0-1.34,0-2.01,0-3.35,9.07,1.55,19.45,1.55,28.52.01,0,1.34,0,2.01,0,3.35Z"/>
        <path class="cls-4" d="M371.62,52.66c-9.07,1.53-19.45,1.54-28.52-.01,0-1.34,0-2.01,0-3.35,9.21,1.26,19.31,1.25,28.52.01,0,1.34,0,2.01,0,3.35Z"/>
        <path class="cls-5" d="M371.62,49.44c-9.21,1.25-19.32,1.25-28.52-.01,0-1.34,0-2.01,0-3.35,9.33.96,19.19.95,28.52.01,0,1.34,0,2.01,0,3.35Z"/>
        <path class="cls-4" d="M371.62,46.09c-9.33.94-19.19.95-28.52-.01,0-1.34,0-2.01,0-3.35,9.43.64,19.09.64,28.52.01,0,1.34,0,2.01,0,3.35Z"/>
        <path class="cls-5" d="M371.62,42.88c-9.42.64-19.1.64-28.52-.01,0-1.34,0-2.01,0-3.35,9.49.33,19.03.33,28.52.01,0,1.34,0,2.01,0,3.35Z"/>
        <path class="cls-4" d="M371.61,39.52c-9.49.31-19.04.32-28.52-.01,0-1.34,0-2.01,0-3.35,9.51,0,19.01,0,28.52.01,0,1.34,0,2.01,0,3.35Z"/>
        <path class="cls-5" d="M371.61,36.31c-9.51,0-19.01,0-28.52-.01,0-1.34,0-2.01,0-3.35,9.49-.31,19.04-.32,28.52.01,0,1.34,0,2.01,0,3.35Z"/>
        <path class="cls-4" d="M371.61,32.96c-9.49-.33-19.03-.32-28.52-.01,0-1.34,0-2.01,0-3.35,9.42-.64,19.1-.64,28.52.01,0,1.34,0,2.01,0,3.35Z"/>
        <path class="cls-5" d="M371.61,29.74c-9.43-.64-19.09-.64-28.52-.01,0-1.34,0-2.01,0-3.35,9.33-.94,19.19-.95,28.52.01,0,1.34,0,2.01,0,3.35Z"/>
        <path class="cls-4" d="M371.61,26.39c-9.33-.96-19.19-.95-28.52-.01,0-1.34,0-2.01,0-3.35,9.21-1.25,19.32-1.26,28.52.01,0,1.34,0,2.01,0,3.35Z"/>
        <path class="cls-5" d="M371.61,23.18c-9.21-1.25-19.31-1.25-28.52-.01,0-1.34,0-2.01,0-3.35,9.07-1.53,19.45-1.54,28.52.01,0,1.34,0,2.01,0,3.35Z"/>
        <path class="cls-4" d="M371.6,19.83c-9.07-1.55-19.45-1.55-28.52-.01,0-1.34,0-2.01,0-3.35,8.92-1.82,19.61-1.83,28.52.01,0,1.34,0,2.01,0,3.35Z"/>
        <path class="cls-5" d="M371.6,16.61c-8.92-1.83-19.6-1.82-28.52-.01,0-1.34-.08-2,0-3.36,8.76-2.09,19.75-2.09,28.5.01.09,1.36.01,2.02.01,3.36Z"/>
        <path class="cls-4" d="M371.59,13.25c-8.75-2.1-19.74-2.1-28.5-.01.09-1.35.42-1.99,1.32-2.9,7.69-2.33,18.18-2.34,25.87,0,.9.91,1.22,1.55,1.31,2.9Z"/>
      </g>
      <rect class="cls-4" x="380.22" y="9.02" width="20.96" height="54.43" rx="4.54" ry="4.54"/>
      <rect class="cls-4" x="94.28" y="9.02" width="20.96" height="54.43" rx="4.54" ry="4.54"/>
      <rect class="cls-4" x="10.47" y="9.02" width="52.38" height="72.58" rx="4.54" ry="4.54"/>
      <rect class="cls-4" x="10.48" y="90.68" width="52.38" height="81.66" rx="4.54" ry="4.54"/>
      <path class="cls-4" d="M425.05,108.82h-53.79c-2.51,0-4.54,2.03-4.54,4.54v54.44c0,2.51,2.03,4.54,4.54,4.54h53.8c2.51,0,4.54-2.04,4.54-4.55v-54.43c0-2.51-2.04-4.54-4.54-4.54Z"/>
      <rect class="cls-4" x="293.47" y="108.72" width="62.68" height="63.68" rx="4.54" ry="4.54" transform="translate(-.29 .66) rotate(-.12)"/>
      <rect class="cls-4" x="220.04" y="108.82" width="62.86" height="63.51" rx="4.54" ry="4.54"/>
      <rect class="cls-4" x="146.7" y="108.82" width="62.86" height="63.51" rx="4.54" ry="4.54"/>
      <path class="cls-4" d="M131.49,108.57l-53.61.23c-2.5.01-4.52,2.04-4.52,4.54v54.46c0,2.5,2.03,4.54,4.53,4.54l53.95.04c2.52,0,4.56-2.05,4.54-4.56l-.33-54.74c-.02-2.5-2.05-4.52-4.56-4.51Z"/>
      <path class="cls-4" d="M477.39,9.02h-32.81c-2.51,0-4.54,2.03-4.54,4.53v63.51c0,2.51,2.03,4.54,4.54,4.54h32.83c2.51,0,4.54-2.03,4.54-4.54l-.02-63.51c0-2.5-2.03-4.53-4.54-4.54Z"/>
      <rect class="cls-4" x="440.07" y="90.67" width="41.92" height="81.66" rx="4.54" ry="4.54"/>
      <g>
        <path class="cls-5" d="M151.48,62.13c-7.69,2.33-18.18,2.34-25.87-.01-.9-.91-1.22-1.55-1.31-2.9,8.75,2.11,19.74,2.1,28.5.02-.09,1.35-.42,1.99-1.32,2.9Z"/>
        <path class="cls-4" d="M152.8,59.23c-8.76,2.09-19.75,2.09-28.5-.02-.09-1.36-.01-2.02-.01-3.36,8.92,1.83,19.6,1.82,28.52.01,0,1.34.08,2,0,3.36Z"/>
        <path class="cls-5" d="M152.81,56.01c-8.92,1.82-19.61,1.83-28.52-.01,0-1.34,0-2.01,0-3.35,9.07,1.55,19.45,1.55,28.52.01,0,1.34,0,2.01,0,3.35Z"/>
        <path class="cls-4" d="M152.81,52.66c-9.07,1.53-19.45,1.54-28.52-.01,0-1.34,0-2.01,0-3.35,9.21,1.26,19.31,1.25,28.52.01,0,1.34,0,2.01,0,3.35Z"/>
        <path class="cls-5" d="M152.81,49.44c-9.21,1.25-19.32,1.25-28.52-.01,0-1.34,0-2.01,0-3.35,9.33.96,19.19.95,28.52.01,0,1.34,0,2.01,0,3.35Z"/>
        <path class="cls-4" d="M152.81,46.09c-9.33.94-19.19.95-28.52-.01,0-1.34,0-2.01,0-3.35,9.43.64,19.09.64,28.52.01,0,1.34,0,2.01,0,3.35Z"/>
        <path class="cls-5" d="M152.81,42.88c-9.42.64-19.1.64-28.52-.01,0-1.34,0-2.01,0-3.35,9.49.33,19.03.33,28.52.01,0,1.34,0,2.01,0,3.35Z"/>
        <path class="cls-4" d="M152.8,39.52c-9.49.31-19.04.32-28.52-.01,0-1.34,0-2.01,0-3.35,9.51,0,19.01,0,28.52.01,0,1.34,0,2.01,0,3.35Z"/>
        <path class="cls-5" d="M152.8,36.31c-9.51,0-19.01,0-28.52-.01,0-1.34,0-2.01,0-3.35,9.49-.31,19.04-.32,28.52.01,0,1.34,0,2.01,0,3.35Z"/>
        <path class="cls-4" d="M152.8,32.96c-9.49-.33-19.03-.32-28.52-.01,0-1.34,0-2.01,0-3.35,9.42-.64,19.1-.64,28.52.01,0,1.34,0,2.01,0,3.35Z"/>
        <path class="cls-5" d="M152.8,29.74c-9.43-.64-19.09-.64-28.52-.01,0-1.34,0-2.01,0-3.35,9.33-.94,19.19-.95,28.52.01,0,1.34,0,2.01,0,3.35Z"/>
        <path class="cls-4" d="M152.8,26.39c-9.33-.96-19.19-.95-28.52-.01,0-1.34,0-2.01,0-3.35,9.21-1.25,19.32-1.26,28.52.01,0,1.34,0,2.01,0,3.35Z"/>
        <path class="cls-5" d="M152.8,23.18c-9.21-1.25-19.31-1.25-28.52-.01,0-1.34,0-2.01,0-3.35,9.07-1.53,19.45-1.54,28.52.01,0,1.34,0,2.01,0,3.35Z"/>
        <path class="cls-4" d="M152.79,19.83c-9.07-1.55-19.45-1.55-28.52-.01,0-1.34,0-2.01,0-3.35,8.92-1.82,19.61-1.83,28.52.01,0,1.34,0,2.01,0,3.35Z"/>
        <path class="cls-5" d="M152.79,16.61c-8.92-1.83-19.6-1.82-28.52-.01,0-1.34-.08-2,0-3.36,8.76-2.09,19.75-2.09,28.5.01.09,1.36.01,2.02.01,3.36Z"/>
        <path class="cls-4" d="M152.78,13.25c-8.75-2.1-19.74-2.1-28.5-.01.09-1.35.42-1.99,1.32-2.9,7.69-2.33,18.18-2.34,25.87,0,.9.91,1.22,1.55,1.31,2.9Z"/>
      </g>
      <text class="cls-2" transform="translate(220.04 48.24)"><tspan x="0" y="0">НОМЫН </tspan><tspan class="cls-1" x="38.19" y="0">С</tspan><tspan x="43.94" y="0">АН</tspan></text>
      <g>
        <path class="cls-3" d="M104.52,42.32c-.1.61-1.09.66-1.23.02v-8.93c-.02-.06-.07-.11-.13-.09l-.08.04-.03,3.92c-.08.68-.98.63-1.04,0-.09-.86.07-1.86,0-2.74.03-1.07-.13-2.28,1.29-2.37.78-.05,1.99-.06,2.77,0,.63.05,1.17.46,1.23,1.12.12,1.27-.09,2.7,0,3.99-.06.63-.97.69-1.05-.06s.02-1.7.03-2.46c0-.38.04-.92,0-1.28-.03-.23-.22-.19-.22-.11v8.95s-.06.15-.08.17c-.22.42-.87.42-1.09,0-.01-.03-.08-.16-.08-.17v-5.14h-.28v5.14Z"/>
        <path class="cls-3" d="M103.9,31.52c-1-.98.49-2.53,1.51-1.56s-.49,2.57-1.51,1.56Z"/>
      </g>
      <g>
        <path class="cls-3" d="M393.95,36.48v.22c-.17.52-.82.55-1.02.03l-.86-2.44.72,3.78c.02.08-.14.29-.21.29h-.48v3.89s-.07.16-.09.19c-.24.42-.86.4-1.08-.02-.01-.02-.08-.19-.08-.2v-3.86h-.23s-.05.07-.05.07l-.03,3.91c-.15.47-.82.55-1.09.15-.02-.03-.1-.19-.1-.21v-3.88l-.04-.04h-.47s-.18-.16-.17-.21l.71-3.86s-.04.05-.05.08c-.3.75-.51,1.57-.82,2.31-.07.16-.12.29-.29.37-.26.12-.55.04-.68-.22-.12-.23-.06-.34.01-.57.34-1.09.8-2.18,1.16-3.27.15-.31.36-.6.69-.72.39-.14,1.72-.12,2.18-.09.61.04.92.34,1.16.89l1.21,3.41Z"/>
        <path class="cls-3" d="M390.51,29.73c1.55-.22,1.7,2,.32,2.12s-1.56-1.94-.32-2.12Z"/>
      </g>
    </g>
  </g>
</svg>