<?xml version="1.0" encoding="UTF-8"?>
<svg id="Layer_2" data-name="Layer 2" xmlns="http://www.w3.org/2000/svg" viewBox="0 0 597.21 447.44">
  <defs>
    <style>
      .cls-1 {
        letter-spacing: 0em;
      }

      .cls-2 {
        letter-spacing: 0em;
      }

      .cls-3 {
        font-size: 8px;
      }

      .cls-3, .cls-4 {
        font-family: Montserrat-ExtraBold, Montserrat;
        font-weight: 700;
      }

      .cls-3, .cls-4, .cls-5 {
        fill: #fff;
      }

      .cls-4 {
        font-size: 6px;
      }

      .cls-6 {
        letter-spacing: -.02em;
      }

      .cls-7 {
        fill: #3a4889;
      }

      .cls-8 {
        letter-spacing: 0em;
      }

      .cls-9 {
        fill: #d4d2d3;
      }

      .cls-10 {
        letter-spacing: -.03em;
      }

      .cls-11 {
        letter-spacing: 0em;
      }

      .cls-12 {
        letter-spacing: 0em;
      }

      .cls-13 {
        letter-spacing: -.14em;
      }

      .cls-14 {
        letter-spacing: 0em;
      }

      .cls-15 {
        letter-spacing: .03em;
      }

      .cls-16 {
        letter-spacing: -.01em;
      }

      .cls-17 {
        letter-spacing: -.02em;
      }

      .cls-18 {
        letter-spacing: -.01em;
      }

      .cls-19 {
        letter-spacing: 0em;
      }

      .cls-20 {
        letter-spacing: 0em;
      }

      .cls-21 {
        letter-spacing: -.03em;
      }

      .cls-22 {
        letter-spacing: -.01em;
      }

      .cls-23 {
        letter-spacing: -.04em;
      }
    </style>
  </defs>
  <g id="Layer_1-2" data-name="Layer 1">
    <g>
      <path class="cls-9" d="M592.67,20.98h-148.09c-2.51,0-4.54,2.03-4.54,4.54h0c0,2.51-2.03,4.54-4.54,4.54h-169.04c-2.51,0-4.54-2.03-4.54-4.54h0c0-2.51-2.03-4.54-4.54-4.54H109.31c-2.51,0-4.54,2.03-4.54,4.53v172.4c0,2.51-2.03,4.54-4.54,4.54H4.54c-2.51,0-4.54,2.03-4.54,4.54v235.91c0,2.51,2.03,4.54,4.54,4.54h200.47c2.51,0,4.54-2.03,4.54-4.54v-235.91c0-2.51,2.04-4.54,4.54-4.54h378.58c2.51,0,4.54-2.03,4.54-4.54V25.52c0-2.51-2.03-4.54-4.54-4.54Z"/>
      <rect class="cls-7" x="384.85" y="34.47" width="55.25" height="57.41" rx="4.54" ry="4.54"/>
      <rect class="cls-7" x="483.47" y="27.97" width="104.78" height="108.88" rx="4.54" ry="4.54"/>
      <rect class="cls-7" x="112.9" y="88.91" width="35.27" height="111.4" rx="4.54" ry="4.54"/>
      <rect class="cls-7" x="173.49" y="118.65" width="35.27" height="72.97" rx="4.54" ry="4.54"/>
      <rect class="cls-7" x="214.15" y="118.65" width="56.51" height="72.97" rx="4.54" ry="4.54"/>
      <rect class="cls-7" x="10.48" y="210.24" width="188.6" height="226.84" rx="4.54" ry="4.54"/>
      <rect class="cls-7" x="172.52" y="27.97" width="20.96" height="54.43" rx="4.54" ry="4.54"/>
      <rect class="cls-7" x="324" y="202.45" width="54.43" height="20.96" rx="4.54" ry="4.54"/>
      <g>
        <path class="cls-9" d="M255.34,81.08c-7.69,2.33-18.18,2.34-25.87-.01-.9-.91-1.22-1.55-1.31-2.9,8.75,2.11,19.74,2.1,28.5.02-.09,1.35-.42,1.99-1.32,2.9Z"/>
        <path class="cls-7" d="M256.66,78.18c-8.76,2.09-19.75,2.09-28.5-.02-.09-1.36-.01-2.02-.01-3.36,8.92,1.83,19.6,1.82,28.52.01,0,1.34.08,2,0,3.36Z"/>
        <path class="cls-9" d="M256.67,74.96c-8.92,1.82-19.61,1.83-28.52-.01,0-1.34,0-2.01,0-3.35,9.07,1.55,19.45,1.55,28.52.01,0,1.34,0,2.01,0,3.35Z"/>
        <path class="cls-7" d="M256.67,71.61c-9.07,1.53-19.45,1.54-28.52-.01,0-1.34,0-2.01,0-3.35,9.21,1.26,19.31,1.25,28.52.01,0,1.34,0,2.01,0,3.35Z"/>
        <path class="cls-9" d="M256.67,68.4c-9.21,1.25-19.32,1.25-28.52-.01,0-1.34,0-2.01,0-3.35,9.33.96,19.19.95,28.52.01,0,1.34,0,2.01,0,3.35Z"/>
        <path class="cls-7" d="M256.66,65.05c-9.33.94-19.19.95-28.52-.01,0-1.34,0-2.01,0-3.35,9.43.64,19.09.64,28.52.01,0,1.34,0,2.01,0,3.35Z"/>
        <path class="cls-9" d="M256.66,61.83c-9.42.64-19.1.64-28.52-.01,0-1.34,0-2.01,0-3.35,9.49.33,19.03.33,28.52.01,0,1.34,0,2.01,0,3.35Z"/>
        <path class="cls-7" d="M256.66,58.48c-9.49.31-19.04.32-28.52-.01,0-1.34,0-2.01,0-3.35,9.51,0,19.01,0,28.52.01,0,1.34,0,2.01,0,3.35Z"/>
        <path class="cls-9" d="M256.66,55.27c-9.51,0-19.01,0-28.52-.01,0-1.34,0-2.01,0-3.35,9.49-.31,19.04-.32,28.52.01,0,1.34,0,2.01,0,3.35Z"/>
        <path class="cls-7" d="M256.66,51.91c-9.49-.33-19.03-.32-28.52-.01,0-1.34,0-2.01,0-3.35,9.42-.64,19.1-.64,28.52.01,0,1.34,0,2.01,0,3.35Z"/>
        <path class="cls-9" d="M256.66,48.7c-9.43-.64-19.09-.64-28.52-.01,0-1.34,0-2.01,0-3.35,9.33-.94,19.19-.95,28.52.01,0,1.34,0,2.01,0,3.35Z"/>
        <path class="cls-7" d="M256.65,45.35c-9.33-.96-19.19-.95-28.52-.01,0-1.34,0-2.01,0-3.35,9.21-1.25,19.32-1.26,28.52.01,0,1.34,0,2.01,0,3.35Z"/>
        <path class="cls-9" d="M256.65,42.13c-9.21-1.25-19.31-1.25-28.52-.01,0-1.34,0-2.01,0-3.35,9.07-1.53,19.45-1.54,28.52.01,0,1.34,0,2.01,0,3.35Z"/>
        <path class="cls-7" d="M256.65,38.78c-9.07-1.55-19.45-1.55-28.52-.01,0-1.34,0-2.01,0-3.35,8.92-1.82,19.61-1.83,28.52.01,0,1.34,0,2.01,0,3.35Z"/>
        <path class="cls-9" d="M256.65,35.57c-8.92-1.83-19.6-1.82-28.52-.01,0-1.34-.08-2,0-3.36,8.76-2.09,19.75-2.09,28.5.01.09,1.36.01,2.02.01,3.36Z"/>
        <path class="cls-7" d="M256.64,32.21c-8.75-2.1-19.74-2.1-28.5-.01.09-1.35.42-1.99,1.32-2.9,7.69-2.33,18.18-2.34,25.87,0,.9.91,1.22,1.55,1.31,2.9Z"/>
      </g>
      <rect class="cls-7" x="112.91" y="27.92" width="51.35" height="54.43" rx="4.54" ry="4.54"/>
      <rect class="cls-7" x="262.33" y="33.76" width="55.25" height="57.42" rx="4.54" ry="4.54"/>
      <rect class="cls-7" x="323.59" y="33.76" width="55.25" height="57.41" rx="4.54" ry="4.54"/>
      <rect class="cls-7" x="483.46" y="142.93" width="104.78" height="50.23" rx="4.54" ry="4.54"/>
      <g>
        <path class="cls-9" d="M474.15,81.08c-7.69,2.33-18.18,2.34-25.87-.01-.9-.91-1.22-1.55-1.31-2.9,8.75,2.11,19.74,2.1,28.5.02-.09,1.35-.42,1.99-1.32,2.9Z"/>
        <path class="cls-7" d="M475.47,78.18c-8.76,2.09-19.75,2.09-28.5-.02-.09-1.36-.01-2.02-.01-3.36,8.92,1.83,19.6,1.82,28.52.01,0,1.34.08,2,0,3.36Z"/>
        <path class="cls-9" d="M475.48,74.96c-8.92,1.82-19.61,1.83-28.52-.01,0-1.34,0-2.01,0-3.35,9.07,1.55,19.45,1.55,28.52.01,0,1.34,0,2.01,0,3.35Z"/>
        <path class="cls-7" d="M475.48,71.61c-9.07,1.53-19.45,1.54-28.52-.01,0-1.34,0-2.01,0-3.35,9.21,1.26,19.31,1.25,28.52.01,0,1.34,0,2.01,0,3.35Z"/>
        <path class="cls-9" d="M475.48,68.4c-9.21,1.25-19.32,1.25-28.52-.01,0-1.34,0-2.01,0-3.35,9.33.96,19.19.95,28.52.01,0,1.34,0,2.01,0,3.35Z"/>
        <path class="cls-7" d="M475.47,65.05c-9.33.94-19.19.95-28.52-.01,0-1.34,0-2.01,0-3.35,9.43.64,19.09.64,28.52.01,0,1.34,0,2.01,0,3.35Z"/>
        <path class="cls-9" d="M475.47,61.83c-9.42.64-19.1.64-28.52-.01,0-1.34,0-2.01,0-3.35,9.49.33,19.03.33,28.52.01,0,1.34,0,2.01,0,3.35Z"/>
        <path class="cls-7" d="M475.47,58.48c-9.49.31-19.04.32-28.52-.01,0-1.34,0-2.01,0-3.35,9.51,0,19.01,0,28.52.01,0,1.34,0,2.01,0,3.35Z"/>
        <path class="cls-9" d="M475.47,55.27c-9.51,0-19.01,0-28.52-.01,0-1.34,0-2.01,0-3.35,9.49-.31,19.04-.32,28.52.01,0,1.34,0,2.01,0,3.35Z"/>
        <path class="cls-7" d="M475.47,51.91c-9.49-.33-19.03-.32-28.52-.01,0-1.34,0-2.01,0-3.35,9.42-.64,19.1-.64,28.52.01,0,1.34,0,2.01,0,3.35Z"/>
        <path class="cls-9" d="M475.47,48.7c-9.43-.64-19.09-.64-28.52-.01,0-1.34,0-2.01,0-3.35,9.33-.94,19.19-.95,28.52.01,0,1.34,0,2.01,0,3.35Z"/>
        <path class="cls-7" d="M475.46,45.35c-9.33-.96-19.19-.95-28.52-.01,0-1.34,0-2.01,0-3.35,9.21-1.25,19.32-1.26,28.52.01,0,1.34,0,2.01,0,3.35Z"/>
        <path class="cls-9" d="M475.46,42.13c-9.21-1.25-19.31-1.25-28.52-.01,0-1.34,0-2.01,0-3.35,9.07-1.53,19.45-1.54,28.52.01,0,1.34,0,2.01,0,3.35Z"/>
        <path class="cls-7" d="M475.46,38.78c-9.07-1.55-19.45-1.55-28.52-.01,0-1.34,0-2.01,0-3.35,8.92-1.82,19.61-1.83,28.52.01,0,1.34,0,2.01,0,3.35Z"/>
        <path class="cls-9" d="M475.46,35.57c-8.92-1.83-19.6-1.82-28.52-.01,0-1.34-.08-2,0-3.36,8.76-2.09,19.75-2.09,28.5.01.09,1.36.01,2.02.01,3.36Z"/>
        <path class="cls-7" d="M475.45,32.21c-8.75-2.1-19.74-2.1-28.5-.01.09-1.35.42-1.99,1.32-2.9,7.69-2.33,18.18-2.34,25.87,0,.9.91,1.22,1.55,1.31,2.9Z"/>
      </g>
      <text class="cls-3" transform="translate(76.52 326.56)"><tspan x="0" y="0">СПО</tspan><tspan class="cls-23" x="19.02" y="0">Р</tspan><tspan x="24.56" y="0">Т З</tspan><tspan class="cls-15" x="37.42" y="0">А</tspan><tspan class="cls-2" x="44.25" y="0">А</tspan><tspan x="50.9" y="0">Л</tspan></text>
      <text class="cls-4" transform="translate(181.35 149.34)"><tspan class="cls-20" x="0" y="0">Б</tspan><tspan class="cls-1" x="4.4" y="0">АГШ</tspan><tspan x="-2.9" y="7.2">НА</tspan><tspan class="cls-12" x="6.94" y="7.2">Р</tspan><tspan x="11.26" y="7.2">ЫН</tspan><tspan x=".04" y="14.4">ӨРӨӨ</tspan></text>
      <text class="cls-4" transform="translate(124.72 50.68)"><tspan class="cls-14" x="0" y="0">Х</tspan><tspan class="cls-18" x="4.5" y="0">У</tspan><tspan x="8.87" y="0">В</tspan><tspan class="cls-19" x="13.33" y="0">Ц</tspan><tspan class="cls-22" x="18.47" y="0">А</tspan><tspan x="23.35" y="0">С</tspan><tspan class="cls-21" x="2.23" y="7.2">С</tspan><tspan class="cls-17" x="6.45" y="7.2">О</tspan><tspan x="11.36" y="7.2">Л</tspan><tspan class="cls-17" x="16.18" y="7.2">И</tspan><tspan x="20.98" y="7.2">Х</tspan><tspan x="4.13" y="14.4">ӨРӨӨ</tspan></text>
      <text class="cls-4" transform="translate(276.5 60.8)"><tspan x="0" y="0">НОМЫН</tspan><tspan class="cls-16" x="6.37" y="7.2">С</tspan><tspan class="cls-1" x="10.69" y="7.2">АН</tspan></text>
      <text class="cls-4" transform="translate(519.66 82.41)"><tspan x="0" y="0">ЗООГИЙН</tspan><tspan class="cls-13" x="5.68" y="7.2">Г</tspan><tspan class="cls-1" x="8.47" y="7.2">АЗАР</tspan></text>
      <text class="cls-4" transform="translate(229.16 155.13)"><tspan class="cls-17" x="0" y="0">Ө</tspan><tspan x="4.91" y="0">Л</tspan><tspan class="cls-6" x="9.73" y="0">Г</tspan><tspan class="cls-8" x="13.24" y="0">Ү</tspan><tspan class="cls-11" x="17.72" y="0">Ү</tspan><tspan x="22.1" y="0">Р</tspan></text>
      <text class="cls-4" transform="translate(341.8 214.77)"><tspan x="0" y="0">ОР</tspan><tspan class="cls-10" x="9.41" y="0">О</tspan><tspan x="14.3" y="0">Х</tspan></text>
      <rect class="cls-7" x="183" y=".01" width="54.43" height="20.96" rx="4.54" ry="4.54"/>
      <text class="cls-4" transform="translate(200.81 12.34)"><tspan x="0" y="0">ОР</tspan><tspan class="cls-10" x="9.41" y="0">О</tspan><tspan x="14.3" y="0">Х</tspan></text>
      <g>
        <path class="cls-5" d="M190.11,56.16v.22c-.17.52-.82.55-1.02.03l-.86-2.44.72,3.78c.02.08-.14.29-.21.29h-.48v3.89s-.07.16-.09.19c-.24.42-.86.4-1.08-.02-.01-.02-.08-.19-.08-.2v-3.86h-.23s-.05.07-.05.07l-.03,3.91c-.15.47-.82.55-1.09.15-.02-.03-.1-.19-.1-.21v-3.88l-.04-.04h-.47s-.18-.16-.17-.21l.71-3.86s-.04.05-.05.08c-.3.75-.51,1.57-.82,2.31-.07.16-.12.29-.29.37-.26.12-.55.04-.68-.22-.12-.23-.06-.34.01-.57.34-1.09.8-2.18,1.16-3.27.15-.31.36-.6.69-.72.39-.14,1.72-.12,2.18-.09.61.04.92.34,1.16.89l1.21,3.41Z"/>
        <path class="cls-5" d="M178.45,61.99c-.1.61-1.09.66-1.23.02v-8.93c-.02-.06-.07-.11-.13-.09l-.08.04-.03,3.92c-.08.68-.98.63-1.04,0-.09-.86.07-1.86,0-2.74.03-1.07-.13-2.28,1.29-2.37.78-.05,1.99-.06,2.77,0,.63.05,1.17.46,1.23,1.12.12,1.27-.09,2.7,0,3.99-.06.63-.97.69-1.05-.06s.02-1.7.03-2.46c0-.38.04-.92,0-1.28-.03-.23-.22-.19-.22-.11v8.95s-.06.15-.08.17c-.22.42-.87.42-1.09,0-.01-.03-.08-.16-.08-.17v-5.14h-.28v5.14Z"/>
        <path class="cls-5" d="M182.48,50.04c.25-.04.46.12.48.37v11.02c-.12.53-.8.43-.81-.11v-10.83c.01-.21.1-.41.33-.45Z"/>
        <path class="cls-5" d="M177.82,51.19c-1-.98.49-2.53,1.51-1.56s-.49,2.57-1.51,1.56Z"/>
        <path class="cls-5" d="M186.66,49.41c1.55-.22,1.7,2,.32,2.12s-1.56-1.94-.32-2.12Z"/>
      </g>
    </g>
  </g>
</svg>